<svg width="20" height="20" viewBox="0 0 20 20" fill="none" xmlns="http://www.w3.org/2000/svg">
<path d="M1.89591 19.9896C1.40556 20.0185 0.923328 19.8536 0.55089 19.5297C-0.18363 18.7822 -0.18363 17.575 0.55089 16.8275L16.6345 0.556691C17.3984 -0.166495 18.5972 -0.126294 19.3121 0.646561C19.9585 1.34545 19.9962 2.41966 19.4003 3.1631L3.22196 19.5297C2.85433 19.8489 2.37983 20.0135 1.89591 19.9896Z" fill="white"/>
<path d="M17.9606 19.9897C17.4637 19.9875 16.9873 19.788 16.6345 19.4339L0.550859 3.16305C-0.129636 2.35914 -0.0371188 1.14931 0.75754 0.460835C1.46679 -0.153612 2.5128 -0.153612 3.22199 0.460835L19.4003 16.7316C20.1641 17.455 20.2036 18.6678 19.4885 19.4405C19.4601 19.4712 19.4307 19.5009 19.4003 19.5297C19.0042 19.8782 18.4828 20.0447 17.9606 19.9897Z" fill="white"/>
</svg>
