<svg width="40" height="40" viewBox="0 0 40 40" fill="none" xmlns="http://www.w3.org/2000/svg">
<path d="M28.5 33H11.5C7.3645 33 4 29.5356 4 25.2772V14.7228C4 10.4644 7.3645 7 11.5 7H28.5C32.6355 7 36 10.4644 36 14.7228V25.2772C36 29.5356 32.6355 33 28.5 33ZM11.5 9.57426C8.743 9.57426 6.5 11.8839 6.5 14.7228V25.2772C6.5 28.1161 8.743 30.4257 11.5 30.4257H28.5C31.257 30.4257 33.5 28.1161 33.5 25.2772V14.7228C33.5 11.8839 31.257 9.57426 28.5 9.57426H11.5ZM24.5804 22.2786L30.7588 17.4189C31.3074 16.9874 31.4124 16.1797 30.9934 15.6148C30.5743 15.0498 29.7899 14.9417 29.2412 15.3732L23.0636 20.2323C21.2798 21.6333 18.7886 21.6343 17.0036 20.2359L11.0173 15.4442C10.4722 15.0079 9.68681 15.1092 9.26319 15.6705C8.8395 16.2317 8.93787 17.0404 9.48294 17.4766L15.4739 22.272C15.4769 22.2744 15.4799 22.2768 15.483 22.2792C16.822 23.3308 18.4264 23.8565 20.0311 23.8565C21.6359 23.8565 23.2409 23.3304 24.5804 22.2786Z" fill="#00C89C"/>
</svg>
