<svg width="20" height="17" viewBox="0 0 20 17" fill="none" xmlns="http://www.w3.org/2000/svg">
<path d="M18.3932 1.66582C16.2181 -0.554972 12.6795 -0.554972 10.505 1.66582L9.99988 2.18134L9.49509 1.66582C7.32052 -0.555273 3.78169 -0.555273 1.60712 1.66582C-0.523299 3.84152 -0.537133 7.29024 1.57504 9.68808C3.50148 11.8743 9.18309 16.5975 9.42415 16.7974C9.5878 16.9333 9.78472 16.9994 9.98045 16.9994C9.98693 16.9994 9.9934 16.9994 9.99958 16.9991C10.2021 17.0088 10.4061 16.9378 10.575 16.7974C10.8161 16.5975 16.4983 11.8743 18.4253 9.68778C20.5372 7.29024 20.5233 3.84152 18.3932 1.66582ZM17.1126 8.48149C15.6105 10.1856 11.4819 13.7001 9.99958 14.9473C8.5173 13.7004 4.3895 10.1862 2.88779 8.4818C1.41433 6.80929 1.40049 4.42738 2.8557 2.94124C3.59891 2.18254 4.57493 1.80289 5.55096 1.80289C6.52698 1.80289 7.50301 2.18224 8.24621 2.94124L9.35645 4.07508C9.48861 4.21005 9.65521 4.29061 9.83004 4.31886C10.1138 4.38109 10.4217 4.30023 10.6424 4.07538L11.7532 2.94124C13.24 1.42354 15.6582 1.42384 17.1441 2.94124C18.5993 4.42738 18.5854 6.80929 17.1126 8.48149Z" fill="white"/>
</svg>
