<svg width="40" height="40" viewBox="0 0 40 40" fill="none" xmlns="http://www.w3.org/2000/svg">
<path d="M4 17.774C4 24.5794 9.63683 30.3061 17.325 31.3781C17.8408 31.4915 17.9554 31.609 17.9581 31.609C18.0527 31.8239 17.8115 32.8518 17.7075 33.8423C17.4449 35.5977 18.5619 36.5148 20.416 35.6992C22.1701 34.9289 29.3371 30.1713 32.5613 26.2734C36.1002 22.1939 36.9546 17.2721 34.9059 12.7681C28.428 -1.45932 4 2.64285 4 17.774ZM31.0365 24.9772C28.1015 28.5254 21.5036 32.9666 19.7229 33.8143C19.9521 31.9721 20.6279 30.0552 17.6782 29.4078C10.9111 28.4626 5.99935 23.5702 5.99935 17.774C5.99935 4.80006 27.4963 1.31328 33.0852 13.5984C34.7953 17.3575 34.0555 21.4984 31.0365 24.9772Z" fill="#00C89C"/>
<path d="M14.1273 19.6416H12.5199V14.1137C12.5199 13.5611 12.072 13.1125 11.5202 13.1125C10.9684 13.1125 10.5205 13.5611 10.5205 14.1137V20.6441C10.5205 21.1968 10.9684 21.6453 11.5202 21.6453H14.1273C15.4496 21.6439 15.4496 19.6416 14.1273 19.6416Z" fill="#00C89C"/>
<path d="M15.7362 14.1138C16.0348 19.1437 15.0018 21.6453 16.7359 21.6453C17.2877 21.6453 17.7355 21.1968 17.7355 20.6442V14.1138C17.7355 12.7896 15.7362 12.7882 15.7362 14.1138Z" fill="#00C89C"/>
<path d="M28.4694 15.1149C29.7916 15.1149 29.7929 13.1125 28.4694 13.1125H25.8622C25.3104 13.1125 24.8625 13.5611 24.8625 14.1137V20.6441C24.8625 21.1968 25.3104 21.6453 25.8622 21.6453H28.4694C29.7916 21.6453 29.7929 19.6429 28.4694 19.6429H26.8619V18.3801H28.4694C29.7916 18.3801 29.7929 16.3777 28.4694 16.3777H26.8619V15.1149H28.4694Z" fill="#00C89C"/>
<path d="M22.2541 14.1137V17.0292L20.2001 13.5998C19.6776 12.7294 18.342 13.1045 18.342 14.1151V20.6454C18.342 21.1981 18.7899 21.6466 19.3417 21.6466C19.8935 21.6466 20.3414 21.1981 20.3414 20.6454V17.73L22.3954 21.1594C22.5807 21.4664 22.9085 21.6453 23.2538 21.6453C23.3417 21.6453 23.4324 21.6333 23.5203 21.6092C23.9535 21.4891 24.2534 21.094 24.2534 20.6441V14.1137C24.2534 12.7895 22.2541 12.7882 22.2541 14.1137Z" fill="#00C89C"/>
</svg>
