<svg width="130" height="40" viewBox="0 0 130 40" fill="none" xmlns="http://www.w3.org/2000/svg">
<g clip-path="url(#clip0_361_20)">
<path d="M58.6291 32.7621H47.577L44.9625 39.6894H38.8861L50.4446 9.93344H53.059C54.8863 9.93344 56.1247 10.782 56.7742 12.4847L67.2759 39.6894H61.1995L58.6291 32.7621ZM49.1401 27.8314H57.0714L53.1471 17.1215H53.103L49.1401 27.8314Z" fill="#00C89C"/>
<path d="M70.9416 38.5801C70.1821 37.8425 69.8023 36.8774 69.8023 35.6905V9.93344H92.3303V15.036H75.6256V21.9246H91.0644V27.0272H75.6256V34.5923H92.3303V39.6949H73.8973C72.6864 39.6949 71.7012 39.3289 70.9416 38.5912V38.5801Z" fill="#00C89C"/>
<path d="M100.939 38.9684C100.289 38.4859 99.8434 37.6206 99.5902 36.3727L94.3613 9.93344H100.267L103.894 31.0593H103.977L110.092 11.5086H112.2C112.904 11.5086 113.515 11.6916 114.033 12.0632C114.55 12.4293 114.952 13.1004 115.233 14.0599L120.379 31.0205H120.462L124.089 9.93899H129.994L124.722 36.3783C124.496 37.5097 124.083 38.3472 123.478 38.8852C122.872 39.4232 122.052 39.6949 121.012 39.6949H118.563L112.277 19.2901H112.194L105.782 39.6949H103.333C102.375 39.6949 101.577 39.4565 100.928 38.9739L100.939 38.9684Z" fill="#00C89C"/>
<path d="M26.3369 0.482529V5.67388C26.3369 5.9401 26.5515 6.15641 26.8157 6.15641H33.5251C33.7893 6.15641 34.004 6.37271 34.004 6.63894V19.706C34.004 23.2113 33.3765 26.65 31.0758 29.2512C29.1824 31.3921 26.2763 32.8286 21.8235 33.5053C21.5924 33.5385 21.4107 33.7382 21.4107 33.9767V39.2291C21.4107 39.5008 21.6254 39.7171 21.8951 39.7116C24.4214 39.6617 36.1451 38.985 39.7667 26.7887C40.4382 24.5202 40.5648 22.0078 40.5648 19.695V0.482529C40.5648 0.216306 40.3501 0 40.086 0H26.8102C26.546 0 26.3313 0.216306 26.3313 0.482529H26.3369Z" fill="#00C89C"/>
<path d="M22.7317 5.56837V0.743078C22.7317 0.388114 22.4675 0.0941598 22.1153 0.060882C19.6825 -0.155424 10.5403 -0.332906 4.20511 7.97547C4.20511 7.97547 -5.0692 18.6022 3.92991 31.7081C4.051 31.8856 4.08402 32.1075 4.01797 32.3071L1.79984 39.1014C1.62922 39.6283 2.11908 40.133 2.64747 39.9666L9.84676 37.6704C10.0339 37.6094 10.232 37.6371 10.4027 37.737C11.2008 38.214 13.7711 39.6061 17.0901 39.7891C17.4809 39.8113 17.8111 39.5062 17.8166 39.1125L17.8772 34.1984C17.8772 33.8601 17.6405 33.5717 17.3102 33.5162C15.7911 33.2722 11.5585 32.2128 8.36617 27.8035C8.36617 27.8035 2.02551 18.8629 9.7642 10.5434C9.7642 10.5434 13.2428 5.96216 22.0272 6.23947C22.4125 6.25057 22.7372 5.94552 22.7372 5.55728L22.7317 5.56837Z" fill="white"/>
<path d="M30.641 18.3749H9.69812C8.83949 18.3749 8.17901 19.1847 8.29459 20.0887C9.08167 26.3062 14.0959 31.0982 20.1668 31.0982C26.2378 31.0982 31.252 26.3062 32.039 20.0887C32.1546 19.1847 31.4996 18.3749 30.6355 18.3749H30.641ZM15.2077 25.7238C14.1564 25.7238 13.3088 24.5203 13.3088 23.0338C13.3088 21.5474 14.1564 20.3439 15.2077 20.3439C16.2589 20.3439 17.1066 21.5474 17.1066 23.0338C17.1066 24.5203 16.2589 25.7238 15.2077 25.7238ZM25.137 25.7238C24.0857 25.7238 23.2381 24.5203 23.2381 23.0338C23.2381 21.5474 24.0857 20.3439 25.137 20.3439C26.1882 20.3439 27.0359 21.5474 27.0359 23.0338C27.0359 24.5203 26.1882 25.7238 25.137 25.7238Z" fill="white"/>
</g>
<defs>
<clipPath id="clip0_361_20">
<rect width="130" height="40" fill="white"/>
</clipPath>
</defs>
</svg>
