<svg width="24" height="24" viewBox="0 0 24 24" fill="none" xmlns="http://www.w3.org/2000/svg">
<path d="M7.78186 17.1429C10.5315 19.8857 14.1748 22.08 17.3369 22.08C18.7804 22.08 20.0865 21.6 21.1863 20.5029L21.3926 20.2972C22.1487 19.5429 22.1487 18.24 21.3926 17.4857L19.4678 15.5657C18.7117 14.8114 17.4056 14.8114 16.6494 15.5657L15.962 16.2514C15.6871 16.5257 15.3434 16.6629 14.9997 16.6629C14.5872 16.6629 14.3123 16.5257 14.0373 16.2514L8.6755 10.9029C8.12557 10.3543 8.12557 9.53144 8.6755 8.98286L9.36291 8.29715C9.70661 7.95429 9.98157 7.40572 9.98157 6.92572C9.98157 6.37715 9.77535 5.89715 9.43165 5.55429L7.5069 3.49715C7.1632 3.15429 6.61327 2.94858 6.13208 2.94858C5.58216 2.94858 5.10097 3.15429 4.75726 3.56572L4.41356 3.77144C2.83252 5.34858 2.48881 7.61144 3.31371 10.2857C4.06986 12.5486 5.6509 14.9486 7.78186 17.1429ZM5.37593 4.73144L5.58216 4.52572C5.71964 4.38858 5.85712 4.32001 5.9946 4.32001C6.13208 4.32001 6.33831 4.38858 6.40705 4.52572L8.33179 6.44572C8.46927 6.58286 8.53801 6.72001 8.53801 6.85715C8.53801 6.99429 8.46927 7.20001 8.33179 7.26858L7.64438 7.95429C6.54453 9.05144 6.54453 10.7657 7.64438 11.7943L13.0062 17.1429C13.4874 17.6229 14.1748 17.9657 14.9309 17.9657C15.6871 17.9657 16.3745 17.6914 16.8557 17.1429L17.5431 16.4572C17.818 16.1829 18.1617 16.1829 18.4367 16.4572L20.3615 18.3772C20.5677 18.5829 20.5677 18.9943 20.3615 19.2686L20.1552 19.4743C17.5431 22.1486 12.3875 19.7486 8.6755 16.1143C6.68201 14.1257 5.16971 11.8629 4.55104 9.80572C4.1386 8.36572 3.86363 6.24001 5.37593 4.73144Z" fill="white"/>
<path d="M13.8311 7.67999C15.7558 7.67999 17.2681 9.18856 17.2681 11.1086C17.2681 11.52 17.5431 11.7943 17.9555 11.7943C18.368 11.7943 18.6429 11.52 18.6429 11.1086C18.6429 8.43428 16.512 6.30856 13.8311 6.30856C13.4186 6.30856 13.1436 6.58285 13.1436 6.99428C13.1436 7.40571 13.4186 7.67999 13.8311 7.67999Z" fill="white"/>
<path d="M13.9685 4.25143C17.6805 4.25143 20.7051 7.26858 20.7051 10.9714C20.7051 11.3829 20.9801 11.6571 21.3926 11.6571C21.805 11.6571 22.08 11.3829 22.08 10.9714C22.08 6.51429 18.4367 2.88 13.9685 2.88C13.5561 2.88 13.2811 3.15429 13.2811 3.56572C13.2811 3.97715 13.5561 4.25143 13.9685 4.25143Z" fill="white"/>
</svg>
