<svg width="40" height="40" viewBox="0 0 40 40" fill="none" xmlns="http://www.w3.org/2000/svg">
<path d="M28.8648 22.9207C28.8597 22.9155 28.8548 22.9104 28.8496 22.9053C28.8474 22.9031 28.8448 22.9004 28.8421 22.8979L27.0501 21.106C26.5464 20.6021 25.8767 20.3247 25.1643 20.3247C24.4563 20.3247 23.7901 20.5989 23.2874 21.0969C23.2837 21.1003 23.2803 21.104 23.2766 21.1074L22.3243 22.0601L17.9383 17.6738L18.8904 16.7214C18.8941 16.718 18.8975 16.7144 18.9009 16.7109C19.9319 15.6704 19.9292 13.9851 18.8921 12.948L17.1028 11.1584C17.0994 11.155 17.0962 11.1519 17.0931 11.1487C16.5894 10.646 15.9202 10.3691 15.2088 10.3691C14.4995 10.3691 13.8326 10.6443 13.3296 11.1436C13.3228 11.1504 13.316 11.1572 13.3094 11.1643L12.4876 11.9858C12.0552 12.4182 11.7234 12.75 11.7105 12.7632C10.4414 14.032 10.1448 16.0547 10.8753 18.4587C11.5442 20.6606 13.0161 22.9768 15.0196 24.9805C17.8164 27.7773 21.2417 29.5146 23.9583 29.5146C25.3018 29.5146 26.4358 29.0911 27.2332 28.2935C27.2498 28.2771 27.7085 27.8184 28.2532 27.2737L28.8496 26.6772C28.8506 26.6763 28.8516 26.6753 28.8528 26.6741C29.8775 25.646 29.8872 23.9788 28.8806 22.9382C28.8755 22.9321 28.8699 22.926 28.8648 22.9207ZM27.5306 25.3445C27.5249 25.3501 27.5193 25.3557 27.5137 25.3616L26.9275 25.9478C26.3921 26.4832 25.94 26.9353 25.9109 26.9641C25.4627 27.4124 24.8057 27.6396 23.9583 27.6396C21.7544 27.6396 18.7664 26.0754 16.3455 23.6548C14.5557 21.865 13.2503 19.8262 12.6692 17.9136C12.157 16.2283 12.2908 14.8342 13.0369 14.0881L13.8133 13.3118L14.648 12.4771C14.6512 12.4739 14.6541 12.4709 14.657 12.4678C14.8057 12.3235 15.001 12.2441 15.2088 12.2441C15.4175 12.2441 15.614 12.3245 15.7632 12.4705C15.7652 12.4727 15.7674 12.4749 15.7698 12.4771L17.5662 14.2737C17.875 14.5825 17.875 15.085 17.5662 15.3938C17.5657 15.3943 17.5652 15.395 17.5645 15.3955V15.3958L15.9493 17.011C15.5833 17.3772 15.5833 17.9707 15.9493 18.3369L21.6614 24.0488C21.8372 24.2249 22.0757 24.3235 22.3243 24.3235C22.573 24.3235 22.8116 24.2246 22.9873 24.0488L24.5923 22.4434C24.5982 22.438 24.6038 22.4321 24.6094 22.4265C24.7586 22.2803 24.9554 22.1997 25.1643 22.1997C25.3758 22.1997 25.5745 22.2822 25.7242 22.4316L27.5159 24.2231L27.5198 24.2273C27.5218 24.2292 27.5237 24.2312 27.5254 24.2332C27.8301 24.5396 27.8316 25.0359 27.5306 25.3445Z" fill="#00C89C"/>
<path d="M31.3137 8.68628C28.2917 5.66431 24.2739 4 20 4C15.7261 4 11.7083 5.66431 8.68628 8.68628C5.66431 11.7085 4 15.7263 4 20C4 24.2737 5.66431 28.2917 8.68628 31.3137C11.7083 34.3357 15.7263 36 20 36C24.2737 36 28.2915 34.3357 31.3137 31.3137C34.3357 28.2917 36 24.2739 36 20C36 15.7263 34.3357 11.7085 31.3137 8.68628ZM20 34.125C12.2114 34.125 5.875 27.7883 5.875 20C5.875 12.2117 12.2114 5.87524 20 5.875C27.7886 5.87524 34.125 12.2117 34.125 20C34.1248 27.7886 27.7883 34.125 20 34.125Z" fill="#00C89C"/>
</svg>
