<svg width="32" height="32" viewBox="0 0 32 32" fill="none" xmlns="http://www.w3.org/2000/svg">
<path d="M29.8032 7.92857C26.8848 2.76984 21.4206 0 15.9326 0C12.3955 0 8.8347 1.15079 5.93209 3.57143H5.92416L5.91623 3.5873C5.77348 3.73016 5.52763 3.88889 5.29765 4.10317C5.06766 4.31746 4.82181 4.63492 4.81388 5.07143C4.81388 5.7381 5.34523 6.26984 6.00347 6.26984C6.30483 6.26984 6.59033 6.15079 6.81239 5.94444C8.15266 4.69841 9.77051 3.75397 11.4597 3.15079C10.4208 4.80159 9.61983 6.99206 9.10434 9.55556C6.47931 8.90476 4.75836 8.02381 3.92565 7.45238H3.91772L3.90979 7.44444C3.71945 7.3254 3.4974 7.26984 3.28327 7.26984C2.97398 7.26984 2.64089 7.38889 2.4109 7.66667L2.39504 7.69048L2.37918 7.71429C0.737547 10.2698 0 13.0635 0 15.8175C0 19.9603 1.67336 24 4.47286 27.0079C7.27237 30.0159 11.2297 32 15.774 32C15.8533 32 15.9326 32 16.0119 32H16.1784C20.7703 32 24.7356 30.0317 27.543 27.0238C30.3504 24.0238 32 19.9921 32 15.8413C32 13.1667 31.31 10.4444 29.7953 7.93651L29.8032 7.92857ZM9.02503 22.0556C9.53259 24.7698 10.3574 27.0873 11.4439 28.8175C7.44684 27.4286 4.15564 23.8968 2.99777 19.9762C4.93284 20.881 6.94721 21.5794 9.0171 22.0556H9.02503ZM2.41884 15.9762C2.41884 14 2.85502 12.0159 3.75118 10.1349C4.91698 10.754 6.59827 11.4206 8.72367 11.9286C8.56506 13.2143 8.48575 14.5952 8.48575 15.9841C8.48575 17.1905 8.55713 18.381 8.67608 19.5159C6.52689 18.9444 4.44114 18.127 2.47435 17.0556C2.44263 16.6984 2.42677 16.3413 2.42677 15.9841L2.41884 15.9762ZM23.3001 11.9365C25.4414 11.4206 27.1306 10.746 28.2964 10.127C29.1688 11.9603 29.6287 13.9603 29.6287 16C29.6287 16.3492 29.605 16.6905 29.5812 17.0397C27.6064 18.119 25.5128 18.9444 23.3477 19.5238C23.4746 18.381 23.546 17.2143 23.546 16.0476C23.546 14.6508 23.4508 13.2698 23.2922 11.9444L23.3001 11.9365ZM15.9167 29.6032C15.5519 29.5794 15.1475 29.4127 14.7271 29.0714C13.5138 28.1111 12.2845 25.7698 11.5549 22.5317C13.0221 22.746 14.513 22.8571 15.996 22.8571C17.4791 22.8571 18.97 22.746 20.4292 22.5317C20.2072 23.5317 19.9455 24.5159 19.6124 25.4762C19.5648 25.6111 19.5331 25.754 19.5331 25.8968C19.5331 26.373 19.8265 26.8254 20.2944 27.0079C20.4372 27.0635 20.5799 27.0873 20.7227 27.0873C21.1985 27.0873 21.6506 26.8016 21.833 26.3254V26.3175C22.3247 24.9286 22.6895 23.5 22.967 22.0635C25.0607 21.5794 27.091 20.873 29.0419 19.9603C27.424 25.5317 21.8488 29.627 16.2657 29.619C16.1467 29.619 16.0278 29.619 15.9088 29.619L15.9167 29.6032ZM16.0119 10.381C14.3861 10.381 12.7762 10.2619 11.4201 10.0397C11.888 7.69841 12.6097 5.77778 13.4265 4.45238C13.8548 3.75397 14.3147 3.22222 14.7589 2.87302C15.203 2.52381 15.6233 2.36508 16.004 2.36508C16.3846 2.36508 16.805 2.52381 17.2491 2.87302C17.9152 3.38889 18.6052 4.33333 19.2079 5.61905C19.7631 6.80952 20.2389 8.30952 20.5879 10.0317C19.2317 10.254 17.6218 10.373 16.004 10.373L16.0119 10.381ZM22.9353 9.57143C22.4198 6.99206 21.6109 4.79365 20.5641 3.14286C23.1574 4.05556 25.5524 5.88095 27.083 8.07937C26.1393 8.57143 24.7276 9.12698 22.9274 9.57143H22.9353ZM16.0119 12.7619C17.7487 12.7619 19.4696 12.6349 20.9527 12.3968C21.0875 13.5873 21.1668 14.8333 21.1668 16.0952C21.1668 17.4365 21.0716 18.7778 20.8972 20.0635C19.2872 20.3413 17.6456 20.4841 16.004 20.4841C14.3623 20.4841 12.7207 20.3413 11.1108 20.0635C10.9442 18.8095 10.857 17.4127 10.857 16C10.857 14.754 10.9284 13.5159 11.0553 12.3889C12.5383 12.6349 14.2672 12.7619 16.004 12.7619H16.0119Z" fill="#00C89C"/>
</svg>
